<svg width="0" height="0" class="hidden" style="display:none">
  <symbol xmlns="http://www.w3.org/2000/svg" viewBox="0 0 64 64" id="delete-circle-1">
    <title>Delete Circle</title>
    <desc>A line styled icon from Orion Library.</desc>
    <circle data-name="layer2"
    cx="32.001" cy="32" r="30" transform="rotate(-45 32.001 32)" fill="none"
    stroke="#000000" stroke-miterlimit="10" stroke-width="2" stroke-linejoin="miter"
    stroke-linecap="round" style="stroke:var(--layer1, #000000)"></circle>
    <path data-name="layer1" fill="none" stroke="#000000" stroke-miterlimit="10"
    stroke-width="2" d="M42.999 21.001l-22 22m22 0L21 21" stroke-linejoin="miter"
    stroke-linecap="round" style="stroke:var(--layer1, #000000)"></path>
  </symbol>
  <symbol xmlns="http://www.w3.org/2000/svg" viewBox="0 0 64 64" id="like-1">
    <title>Like</title>
    <desc>A line styled icon from Orion Library.</desc>
    <path data-name="layer1"
    d="M54 35h2a4 4 0 1 0 0-8H34a81 81 0 0 0 2-18 4 4 0 0 0-8 0s-4 22-18 22H4v24h10c4 0 12 4 16 4h20a4 4 0 0 0 0-8h2a4 4 0 0 0 0-8h2a4 4 0 0 0 0-8"
    fill="none" stroke="#000000" stroke-miterlimit="10" stroke-width="2" stroke-linejoin="miter"
    stroke-linecap="round" style="stroke:var(--layer1, #000000)"></path>
  </symbol>
  <symbol xmlns="http://www.w3.org/2000/svg" viewBox="0 0 64 64" id="unlike-1">
    <title>Unlike</title>
    <desc>A line styled icon from Orion Library.</desc>
    <path data-name="layer1"
    d="M10 29H8a4 4 0 0 0 0 8h22a81 81 0 0 0-2 18 4 4 0 0 0 8 0s4-22 18-22h6V9H50c-4 0-12-4-16-4H14a4 4 0 0 0 0 8h-2a4 4 0 0 0 0 8h-2a4 4 0 0 0 0 8"
    fill="none" stroke="#000000" stroke-miterlimit="10" stroke-width="2" stroke-linejoin="miter"
    stroke-linecap="round" style="stroke:var(--layer1, #000000)"></path>
  </symbol>
  <symbol xmlns="http://www.w3.org/2000/svg" viewBox="0 0 64 64" id="close-square-1">
    <title>Close Square</title>
    <desc>A line styled icon from Orion Library.</desc>
    <path data-name="layer2"
    fill="none" stroke="#202020" stroke-miterlimit="10" stroke-width="2" d="M2 2h60v60H2z"
    stroke-linejoin="miter" stroke-linecap="round" style="stroke:var(--layer1, #202020)"></path>
    <path data-name="layer1" fill="none" stroke="#202020" stroke-miterlimit="10"
    stroke-width="2" d="M43.315 20.686L20.688 43.313m22.627 0L20.688 20.686"
    stroke-linejoin="miter" stroke-linecap="round" style="stroke:var(--layer1, #202020)"></path>
  </symbol>
  <symbol viewBox="0 0 64 64" xmlns="http://www.w3.org/2000/svg" id="edit-button-1">
    <title>Edit Button</title>
    <desc>A line styled icon from Orion Library.</desc>
    <path stroke-width="2" stroke-miterlimit="10"
    stroke="#202020" fill="none" d="M44.889 26.138l1.882-1.883c1.941-1.94 1.439-4.584-.5-6.524s-4.584-2.442-6.525-.5l-1.882 1.883"
    data-name="layer2" stroke-linejoin="miter" stroke-linecap="round" style="stroke:var(--layer1, #202020)"></path>
    <path d="M41.814 29.212l3.075-3.074-7.027-7.027-3.074 3.074M18.164 38.809l7.026 7.026"
    stroke-width="2" stroke-miterlimit="10" stroke="#202020" fill="none" data-name="layer2"
    stroke-linejoin="miter" stroke-linecap="round" style="stroke:var(--layer1, #202020)"></path>
    <circle stroke-width="2" stroke-miterlimit="10" stroke="#202020"
    fill="none" r="30" cy="32" cx="32" data-name="layer1" stroke-linejoin="miter"
    stroke-linecap="round" style="stroke:var(--layer1, #202020)"></circle>
    <path d="M25.19 45.835l16.624-16.623-7.026-7.027-16.624 16.624L16 47.999l9.19-2.164z"
    stroke-width="2" stroke-miterlimit="10" stroke="#202020" fill="none" data-name="layer2"
    stroke-linejoin="miter" stroke-linecap="round" style="stroke:var(--layer1, #202020)"></path>
  </symbol>
  <symbol xmlns="http://www.w3.org/2000/svg" viewBox="0 0 64 64" id="edit-1">
    <title>Edit</title>
    <desc>A line styled icon from Orion Library.</desc>
    <path data-name="layer1"
    fill="none" stroke="#202020" stroke-miterlimit="10" stroke-width="2" d="M56 2.4l-26.1 26-4 9.7 9.7-4.1 26-26L56 2.4z"
    stroke-linejoin="miter" stroke-linecap="round" style="stroke:var(--layer2, #202020)"></path>
    <path data-name="layer2" fill="none" stroke="#202020" stroke-miterlimit="10"
    stroke-width="2" d="M34.4 11.6h-32v50h50v-32" stroke-linejoin="miter" stroke-linecap="round"
    style="stroke:var(--layer2, #202020)"></path>
    <path data-name="layer1" fill="none" stroke="#202020" stroke-miterlimit="10"
    stroke-width="2" d="M50.8 7.6l5.6 5.6" stroke-linejoin="miter" stroke-linecap="round"
    style="stroke:var(--layer2, #202020)"></path>
  </symbol>
</svg>